<?xml version="1.0" encoding="UTF-8"?>
<svg id="Livello_1" data-name="Livello 1" xmlns="http://www.w3.org/2000/svg" viewBox="0 0 80 80">
  <defs>
    <style>
      .cls-1 {
        fill: #258535;
      }
    </style>
  </defs>
  <path class="cls-1" d="M49.37,29.59c-.76-.76-2.08-.76-3.03,0-.76.76-.76,2.08,0,3.03l3.03,3.03c.38.38.95.57,1.51.57s1.14-.19,1.51-.57l5.87-5.87c.76-.76.76-2.08,0-3.03-.76-.76-2.08-.76-3.03,0l-4.54,4.54-1.33-1.7Z"/>
  <path class="cls-1" d="M55.24,37.35l-4.35,4.54-1.51-1.51c-.76-.76-2.08-.76-3.03,0-.76.76-.76,2.08,0,3.03l3.03,3.03c.38.38.95.57,1.51.57s1.14-.19,1.51-.57l5.87-5.87c.76-.76.76-2.08,0-3.03-.76-.95-2.08-.95-3.03-.19h0Z"/>
  <path d="M39.91,29.02h-16.85c-1.14,0-2.08.95-2.08,2.08s.95,2.08,2.08,2.08h16.85c1.14,0,2.08-.95,2.08-2.08s-.95-2.08-2.08-2.08Z"/>
  <path d="M39.91,39.81h-16.85c-1.14,0-2.08.95-2.08,2.08s.95,2.08,2.08,2.08h16.85c1.14,0,2.08-.95,2.08-2.08s-.95-2.08-2.08-2.08Z"/>
  <path d="M39.91,50.41h-16.85c-1.14,0-2.08.95-2.08,2.08s.95,2.08,2.08,2.08h16.85c1.14,0,2.08-.95,2.08-2.08s-.95-2.08-2.08-2.08Z"/>
  <path d="M39.91,61.01h-16.85c-1.14,0-2.08.95-2.08,2.08s.95,2.08,2.08,2.08h16.85c1.14,0,2.08-.95,2.08-2.08s-.95-2.08-2.08-2.08Z"/>
  <path d="M65.27,12.55h-12.11c-.76-1.7-2.46-2.84-4.35-2.84h-1.89l.57-3.03c.19-.57,0-1.33-.38-1.89-.38-.38-.95-.76-1.51-.76h-11.36c-.57,0-1.33.38-1.7.76-.38.57-.57,1.14-.38,1.89l.76,3.03h-1.89c-1.89,0-3.6,1.14-4.35,2.84h-11.93c-1.14,0-2.08.95-2.08,2.08v59.25c0,1.14.95,2.08,2.08,2.08h50.54c1.14,0,2.08-.95,2.08-2.08V14.64c0-1.14-.95-2.08-2.08-2.08ZM31.01,13.88h4.73c.57,0,1.33-.38,1.7-.76.38-.57.57-1.14.38-1.89l-.76-3.03h5.87l-.76,3.03c-.19.57,0,1.33.38,1.89.38.57.95.76,1.7.76h4.73c.38,0,.57.19.76.57l.57,3.6h-20.63l.57-3.6c.19-.38.38-.57.76-.57ZM63,71.8H16.81V16.72h8.9l-.57,3.22c-.19.57,0,1.33.38,1.7.38.38.95.76,1.51.76h25.36c.57,0,1.14-.19,1.51-.76.38-.38.57-1.14.38-1.7l-.57-3.22h8.9v55.08h.38Z"/>
</svg>