<?xml version="1.0" encoding="UTF-8"?>
<svg id="Livello_1" data-name="Livello 1" xmlns="http://www.w3.org/2000/svg" viewBox="0 0 80 80">
  <defs>
    <style>
      .cls-1 {
        fill: #fff;
      }
    </style>
  </defs>
  <path class="cls-1" d="M40.06,4.5C20.4,4.5,4.5,20.4,4.5,39.94s15.9,35.56,35.44,35.56,35.56-15.9,35.56-35.44h0c0-19.66-15.78-35.56-35.44-35.56h0ZM40.06,73c-18.28,0-33.06-14.78-33.06-32.93S21.78,7,39.94,7s33.06,14.78,33.06,32.93h0c0,18.28-14.78,33.06-32.93,33.06Z"/>
  <path class="cls-1" d="M50.21,20.53c-.5-.5-1.25-.5-1.75,0l-18.66,18.66c-.25.25-.38.5-.38.88s.13.63.38.88l18.66,18.66c.5.5,1.25.5,1.75,0,.5-.5.5-1.25,0-1.75l-17.78-17.78,17.78-17.66c.5-.63.5-1.38,0-1.88h0Z"/>
</svg>