<?xml version="1.0" encoding="UTF-8"?>
<svg id="Livello_1" data-name="Livello 1" xmlns="http://www.w3.org/2000/svg" viewBox="0 0 80 80">
  <defs>
    <style>
      .cls-1 {
        fill: #258535;
      }
    </style>
  </defs>
  <g id="Layer_39" data-name="Layer 39">
    <path class="cls-1" d="M61.88,76H17.23c-6,0-10.87-4.87-10.87-10.87v-26.52c0-3.02,1.27-5.89,3.48-7.94L32.23,7.03c4.15-3.91,10.6-3.95,14.8-.1.12.1,22.16,23.61,22.28,23.75,2.19,2.05,3.44,4.91,3.45,7.91v26.54c0,6-4.87,10.87-10.87,10.87h0ZM35.81,10.56l-22.39,23.61c-1.29,1.11-2.04,2.73-2.04,4.43v26.52c0,3.22,2.63,5.83,5.85,5.82h44.65c3.22,0,5.84-2.6,5.85-5.82h0v-26.54c0-1.7-.74-3.31-2.02-4.42l-22.14-23.6c-2.21-1.97-5.54-1.98-7.76-.02ZM11.59,32.45"/>
  </g>
</svg>