<?xml version="1.0" encoding="UTF-8"?>
<svg id="Livello_1" data-name="Livello 1" xmlns="http://www.w3.org/2000/svg" viewBox="0 0 80 80">
  <defs>
    <style>
      .cls-1 {
        fill: #258535;
      }
    </style>
  </defs>
  <path d="M38.56,74.91c.79.79,2.09.79,2.88,0l5.3-5.3,5.31,5.3c.79.8,2.08.8,2.88,0l5.3-5.3,5.3,5.31c.38.38.89.59,1.44.59h0c.54,0,1.05-.21,1.44-.6.38-.38.6-.9.6-1.44V6.54c0-1.12-.91-2.04-2.04-2.04H13.02c-1.12,0-2.04.91-2.04,2.04v66.92c0,1.12.91,2.04,2.04,2.04.54,0,1.06-.22,1.44-.6l5.3-5.3,5.3,5.31c.79.79,2.09.79,2.88,0l5.3-5.3,5.3,5.31ZM26.51,70.58l-5.3-5.3c-.38-.39-.89-.6-1.44-.6s-1.06.21-1.44.6l-3.27,3.26V8.57h49.87v59.97l-3.27-3.26c-.38-.39-.89-.6-1.44-.6s-1.06.21-1.44.6l-5.3,5.3-5.3-5.3c-.77-.78-2.11-.78-2.88,0l-5.3,5.3-5.3-5.3c-.38-.39-.9-.6-1.44-.6s-1.05.21-1.44.6l-5.31,5.3Z"/>
  <path class="cls-1" d="M25.08,20.53h24.95c1.1,0,1.99-.89,1.99-1.99s-.89-1.99-1.99-1.99h-24.95c-1.1,0-1.99.89-1.99,1.99s.89,1.99,1.99,1.99Z"/>
  <path class="cls-1" d="M25.08,30.4h24.95c1.1,0,1.99-.89,1.99-1.99s-.89-1.99-1.99-1.99h-24.95c-1.1,0-1.99.89-1.99,1.99s.89,1.99,1.99,1.99Z"/>
  <path class="cls-1" d="M25.08,40.26h12.77c1.1,0,1.99-.89,1.99-1.99s-.89-1.99-1.99-1.99h-12.77c-1.1,0-1.99.89-1.99,1.99s.89,1.99,1.99,1.99Z"/>
  <path class="cls-1" d="M50.89,37.48v2.38c-.58.1-1.15.29-1.68.56-.44.23-.83.55-1.15.94-.29.36-.51.78-.65,1.22-.14.45-.21.93-.21,1.4-.04,1.06.42,2.08,1.25,2.76.38.31.81.58,1.26.78.46.21.94.41,1.42.58.5.18.94.34,1.32.5.33.13.65.29.95.47.23.14.42.32.57.54.14.21.21.46.2.72.02.4-.17.79-.5,1.02-.57.3-1.2.42-1.84.36-.76,0-1.52-.1-2.26-.31-.63-.18-1.25-.4-1.84-.68l-.95,2.53c.48.23.98.43,1.49.61.85.28,1.72.44,2.61.5v2.62h2.78v-2.69c.63-.09,1.25-.28,1.82-.57.46-.24.86-.56,1.2-.95.3-.35.52-.76.66-1.2.13-.42.2-.87.2-1.31.01-.58-.1-1.16-.34-1.7-.23-.48-.55-.91-.95-1.27-.43-.38-.92-.7-1.43-.96-.58-.29-1.18-.55-1.8-.77-.43-.15-.79-.28-1.09-.41-.26-.11-.52-.24-.76-.39-.19-.11-.34-.27-.45-.45-.1-.19-.15-.4-.14-.61,0-.37.17-.71.46-.93.46-.27.99-.4,1.52-.35.68,0,1.36.07,2.02.22.58.13,1.14.3,1.69.53l.68-2.64c-.42-.18-.86-.33-1.31-.44-.65-.16-1.31-.27-1.97-.33v-2.29h-2.78Z"/>
</svg>