<?xml version="1.0" encoding="UTF-8"?>
<svg id="Livello_1" data-name="Livello 1" xmlns="http://www.w3.org/2000/svg" viewBox="0 0 80 80">
  <defs>
    <style>
      .cls-1 {
        fill: #258535;
      }
    </style>
  </defs>
  <path d="M75.11,43l-3.25-7.27c-.65-1.47-2.3-2.23-3.84-1.81-3.12.92-6.44-.91-7.34-4.06-.71-2.47.27-5.15,2.4-6.58l.16-.1c1.35-.86,1.86-2.61,1.21-4.06l-3.25-7.28c-1.03-2.3-3.75-3.33-6.03-2.31L7.2,30.96c-2.3,1.03-3.33,3.74-2.31,6.03l3.25,7.27c.64,1.46,2.3,2.23,3.84,1.81,3.13-.94,6.44.91,7.34,4.06.73,2.53-.32,5.27-2.56,6.67-1.35.86-1.86,2.61-1.21,4.07l3.25,7.28c.75,1.69,2.43,2.7,4.18,2.7.62,0,1.25-.12,1.85-.39l47.94-21.43c2.29-1.03,3.33-3.74,2.31-6.03ZM35.86,56.51c-.96.44-1.39,1.58-.97,2.55l.99,2.22-12.6,5.64c-.35.14-.75,0-.91-.34l-3.06-6.77c3.77-2.68,5.19-7.75,3.29-12.02-1.91-4.28-6.6-6.59-11.12-5.58l-3.04-6.79c-.15-.34,0-.75.35-.9l12.6-5.63.99,2.22c.43.98,1.58,1.43,2.56,1,.48-.21.85-.59,1.03-1.07.19-.48.18-1.01-.04-1.52l-.99-2.22,31.79-14.21c.35-.16.75,0,.9.34l3.06,6.77c-3.77,2.68-5.19,7.75-3.29,12.02h0c1.91,4.28,6.63,6.6,11.12,5.58l3.03,6.79c.15.34,0,.75-.34.9l-31.78,14.2-1-2.23c-.45-.98-1.6-1.39-2.57-.96Z"/>
  <path class="cls-1" d="M29.37,37.2l-1.25-2.79c-.44-.98-1.58-1.42-2.57-.98-.98.43-1.42,1.59-.98,2.57l1.25,2.79c.21.48.59.85,1.07,1.03.23.09.47.14.71.14.27,0,.53-.06.78-.16.98-.43,1.43-1.58.99-2.59Z"/>
  <path class="cls-1" d="M32.83,44.92l-1.27-2.83c-.21-.48-.6-.84-1.08-1.02-.49-.19-1.01-.17-1.48.05-.48.21-.84.59-1.03,1.08s-.17,1.01.04,1.49l1.25,2.79c.21.48.59.85,1.07,1.03.23.09.47.14.71.14.26,0,.53-.05.78-.16.98-.43,1.43-1.58,1.01-2.56Z"/>
  <path class="cls-1" d="M35,49.79c-.43-.98-1.58-1.42-2.56-.98h0c-.98.43-1.42,1.59-.98,2.57l1.25,2.79c.21.48.59.84,1.07,1.03.23.09.47.14.71.14.26,0,.53-.06.78-.16.48-.21.84-.59,1.03-1.07.17-.44.18-.92.02-1.37l-1.31-2.94Z"/>
</svg>