<?xml version="1.0" encoding="UTF-8"?>
<svg id="Livello_1" data-name="Livello 1" xmlns="http://www.w3.org/2000/svg" viewBox="0 0 80 80">
  <defs>
    <style>
      .cls-1 {
        fill: #258535;
      }
    </style>
  </defs>
  <path d="M70.32,23.97c0-1.86-.75-3.69-2.07-5.01h0l-6.17-6.17c-.36-.34-.83-.54-1.34-.54h-.03c-.52,0-1.01.21-1.37.59-.72.75-.72,1.94,0,2.69l6.17,6.17c.62.62.96,1.42.96,2.27v28.18c0,1.06-.88,1.94-1.94,1.94s-1.94-.88-1.94-1.94v-12.24c0-4.11-3.1-7.59-7.18-8.11l-.57-.08V11.6c0-3.93-3.18-7.1-7.1-7.1h-28.41c-3.93,0-7.1,3.18-7.1,7.1v50.13l-.31.18c-1.39.8-2.27,2.3-2.27,3.9v5.17c0,2.48,2.04,4.52,4.52,4.52h38.74c2.48,0,4.52-2.04,4.52-4.52v-5.17c0-1.6-.85-3.1-2.27-3.9l-.31-.18v-26.21l.83.26c1.81.57,3.02,2.22,3.05,4.11v12.24c0,3.2,2.61,5.81,5.81,5.81s5.81-2.61,5.81-5.81v-28.18l-.03.03ZM53.53,71.68H13.5v-6.46h.65c1.06,0,1.94-.88,1.94-1.94V11.63c0-1.78,1.45-3.23,3.23-3.23h28.41c1.78,0,3.23,1.45,3.23,3.23v51.66c0,1.06.88,1.94,1.94,1.94h.65v6.46Z"/>
  <path class="cls-1" d="M45.14,14.86h-23.24c-1.06,0-1.94.88-1.94,1.94v10.33c0,1.06.88,1.94,1.94,1.94h23.24c1.06,0,1.94-.88,1.94-1.94v-10.33c0-1.06-.88-1.94-1.94-1.94ZM43.2,18.73v6.46h-19.37v-6.46h19.37Z"/>
</svg>