<?xml version="1.0" encoding="UTF-8"?>
<svg id="Livello_1" data-name="Livello 1" xmlns="http://www.w3.org/2000/svg" viewBox="0 0 80 80">
  <defs>
    <style>
      .cls-1 {
        fill: #258535;
      }
    </style>
  </defs>
  <path class="cls-1" d="M40.06,4.5C20.4,4.5,4.5,20.4,4.5,39.94s15.9,35.56,35.44,35.56,35.56-15.9,35.56-35.44h0c0-19.66-15.78-35.56-35.44-35.56h0ZM40.06,73c-18.28,0-33.06-14.78-33.06-32.93S21.78,7,39.94,7s33.06,14.78,33.06,32.93h0c0,18.28-14.78,33.06-32.93,33.06Z"/>
  <g id="Layer_4" data-name="Layer 4">
    <path class="cls-1" d="M49.88,15.43c-.15-.85-.96-1.42-1.81-1.27-.85.15-1.42.96-1.27,1.81l7.81,43.74c.15.85.96,1.42,1.81,1.27s1.42-.96,1.27-1.81l-7.81-43.74Z"/>
    <path class="cls-1" d="M31.93,14.14c-.85-.15-1.66.41-1.81,1.26,0,0,0,0,0,0l-7.81,43.74c-.15.85.42,1.66,1.27,1.81.85.15,1.66-.42,1.81-1.27l7.81-43.74c.15-.85-.41-1.66-1.26-1.81,0,0,0,0,0,0Z"/>
    <path class="cls-1" d="M40,34.69c.86,0,1.56-.7,1.56-1.56v-3.62c0-.86-.7-1.56-1.56-1.56s-1.56.7-1.56,1.56v3.62c0,.86.7,1.55,1.56,1.55Z"/>
    <path class="cls-1" d="M40,25.28c.86,0,1.56-.7,1.56-1.56v-3.62c0-.86-.7-1.56-1.56-1.56s-1.56.7-1.56,1.56v3.62c0,.86.7,1.55,1.56,1.55Z"/>
    <path class="cls-1" d="M40,53.58c-.86,0-1.56.7-1.56,1.56v4.3c0,.86.7,1.56,1.56,1.56s1.56-.7,1.56-1.56v-4.3c0-.86-.7-1.56-1.56-1.56Z"/>
    <path class="cls-1" d="M41.4,37.34c-.38-.77-1.32-1.09-2.1-.7-.3.15-.55.4-.7.7l-7.68,15.36c-.4.76-.11,1.71.66,2.11.43.23.95.24,1.39.03l7.03-3.03,7.03,3.03c.79.34,1.71-.03,2.05-.82.18-.42.17-.9-.04-1.31l-7.65-15.36ZM40.62,48.68c-.39-.17-.84-.17-1.23,0l-3.76,1.61,4.37-8.76,4.37,8.76-3.76-1.61Z"/>
  </g>
</svg>