<?xml version="1.0" encoding="UTF-8"?>
<svg id="Livello_1" data-name="Livello 1" xmlns="http://www.w3.org/2000/svg" viewBox="0 0 80 80">
  <defs>
    <style>
      .cls-1 {
        fill: #fff;
      }
    </style>
  </defs>
  <path class="cls-1" d="M40.06,4.5C20.4,4.5,4.5,20.4,4.5,39.94s15.9,35.56,35.44,35.56,35.56-15.9,35.56-35.44h0c.13-19.66-15.78-35.56-35.44-35.56ZM40.06,73c-18.28,0-33.06-14.78-33.06-32.93S21.78,7,39.94,7s33.06,14.78,33.06,32.93h0c.13,18.28-14.65,33.06-32.93,33.06h0Z"/>
  <path class="cls-1" d="M59.47,43.69H20.65c-.75,0-1.25.5-1.25,1.25s.5,1.25,1.25,1.25h38.82c.75,0,1.25-.5,1.25-1.25s-.5-1.25-1.25-1.25Z"/>
  <path class="cls-1" d="M59.47,33.8H20.65c-.75,0-1.25.5-1.25,1.25s.5,1.25,1.25,1.25h38.82c.75,0,1.25-.5,1.25-1.25s-.5-1.25-1.25-1.25Z"/>
  <path class="cls-1" d="M59.47,24.03H20.65c-.75,0-1.25.5-1.25,1.25s.5,1.25,1.25,1.25h38.82c.75,0,1.25-.5,1.25-1.25s-.5-1.25-1.25-1.25Z"/>
  <path class="cls-1" d="M59.47,53.46H20.65c-.75,0-1.25.5-1.25,1.25s.5,1.25,1.25,1.25h38.82c.75,0,1.25-.5,1.25-1.25s-.5-1.25-1.25-1.25Z"/>
</svg>